<svg preserveAspectRatio="none" width="100%" height="100%" overflow="visible" style="display: block;" viewBox="0 0 84 14" fill="none" xmlns="http://www.w3.org/2000/svg">
<g id="g12">
<path id="path14" d="M1.72351 10.8668C1.7439 10.947 1.77926 11.0122 1.83365 11.0598C1.88807 11.1088 1.95469 11.1319 2.03491 11.1319H5.69979C6.03978 11.1319 6.34439 11.0667 6.62043 10.9388C6.89382 10.8096 7.11954 10.6315 7.29633 10.4057C7.47312 10.18 7.59687 9.91479 7.66348 9.61298C7.7301 9.31102 7.72875 8.98602 7.65394 8.63923C7.58867 8.35092 7.48401 8.08171 7.34258 7.83286C7.19973 7.58401 7.02436 7.36232 6.81624 7.16516C7.03525 6.90946 7.19026 6.60757 7.27999 6.25399C7.36973 5.90041 7.37249 5.53056 7.29088 5.14163C7.21197 4.79076 7.07329 4.45895 6.87472 4.14484C6.67347 3.83207 6.43417 3.556 6.15401 3.31802C5.87387 3.0814 5.56789 2.89241 5.232 2.75366C4.89613 2.61498 4.56023 2.5456 4.22027 2.5456H0.212689C0.136529 2.5456 0.0780543 2.56603 0.0386092 2.60543C-0.0021929 2.64623 -0.00898796 2.70882 0.0100472 2.7931L1.71942 10.8668H1.72351ZM5.0117 5.2287C5.03347 5.3456 5.03618 5.45985 5.0185 5.57542C4.99811 5.69238 4.96005 5.79434 4.90018 5.88414C4.84035 5.97389 4.7642 6.05004 4.66765 6.10579C4.57111 6.16426 4.45959 6.19283 4.33175 6.19283H2.98004L2.57072 4.26316H3.92243C4.05028 4.26316 4.17264 4.29036 4.29234 4.3434C4.41064 4.39643 4.52078 4.46851 4.6187 4.56093C4.7166 4.65073 4.80229 4.75405 4.86891 4.86968C4.93828 4.98663 4.98587 5.10495 5.01443 5.22728M5.4224 8.58761C5.44414 8.7045 5.44688 8.81199 5.42511 8.91261C5.40473 9.01324 5.36257 9.10029 5.30136 9.17914C5.23882 9.2553 5.15993 9.31513 5.06203 9.36003C4.9641 9.40486 4.85124 9.42664 4.72342 9.42664H3.65998L3.30641 7.74991H4.35217C4.48407 7.74991 4.60782 7.77028 4.72613 7.80974C4.84309 7.85054 4.95051 7.90761 5.04435 7.98377C5.13816 8.05993 5.2184 8.14698 5.28368 8.25029C5.34895 8.35368 5.39519 8.4652 5.4224 8.58895" fill="var(--fill-0, white)"/>
<path id="path16" d="M11.7908 10.9058C11.818 10.9534 11.8669 11.0023 11.9404 11.054C12.0138 11.1057 12.0832 11.1329 12.1484 11.1329H13.628C13.6933 11.1329 13.7463 11.1152 13.7898 11.0785C13.832 11.0431 13.8564 11.005 13.866 10.967L15.3115 2.81173C15.3156 2.77637 15.3156 2.74922 15.3115 2.72474C15.2898 2.60778 15.1932 2.55198 15.0232 2.55198H13.3642C13.2744 2.55198 13.2092 2.56834 13.167 2.60099C13.1248 2.63502 13.0977 2.68806 13.0868 2.76689C13.0555 2.96404 13.0242 3.15851 12.9902 3.35298C12.9562 3.54744 12.9249 3.74191 12.8936 3.93909H9.82437C9.70741 3.74191 9.59186 3.54744 9.4749 3.35298C9.35659 3.15851 9.23963 2.96404 9.12542 2.76689C9.08328 2.69753 9.03568 2.64314 8.98399 2.60778C8.9323 2.57243 8.86703 2.5534 8.78952 2.5534H7.08288C7.02029 2.5534 6.97136 2.56431 6.93056 2.59146C6.88975 2.6159 6.87618 2.65673 6.88841 2.70977C6.89251 2.73019 6.90474 2.75466 6.92242 2.78322L11.7894 10.9126V10.9058H11.7908ZM12.317 8.43219C12.2001 8.23497 12.0818 8.02282 11.9608 7.79575C11.8398 7.56996 11.7174 7.33879 11.5908 7.10897C11.4658 6.8778 11.342 6.65073 11.221 6.42359C11.0999 6.19787 10.9816 5.98707 10.8647 5.7899H12.6407L12.3157 8.43219H12.317Z" fill="var(--fill-0, white)"/>
<path id="path18" d="M17.6815 10.8772C17.6978 10.9466 17.7332 11.0064 17.7889 11.0567C17.8447 11.1056 17.9126 11.1328 17.9942 11.1328H19.705C19.7703 11.1328 19.8287 11.1111 19.8749 11.0635C19.9226 11.0159 19.9375 10.9561 19.9171 10.8772L18.5803 4.58912H21.7598C21.8291 4.58912 21.8849 4.56733 21.9257 4.51974C21.9665 4.47214 21.9774 4.40958 21.9569 4.32938L21.6319 2.809C21.617 2.74373 21.583 2.6839 21.5286 2.6281C21.4756 2.57238 21.4075 2.54514 21.3273 2.54514H16.1652C15.9952 2.54514 15.9286 2.63086 15.9639 2.80086L17.6815 10.8827V10.8785V10.8772Z" fill="var(--fill-0, white)"/>
<path id="path20" d="M24.2232 10.8772C24.2395 10.9466 24.2748 11.0064 24.3306 11.0567C24.3863 11.1056 24.4544 11.1328 24.536 11.1328H26.2466C26.3119 11.1328 26.3704 11.1111 26.4166 11.0635C26.4642 11.0159 26.4792 10.9561 26.4588 10.8772L25.1247 4.58912H28.3042C28.3735 4.58912 28.4293 4.56733 28.4701 4.51974C28.5109 4.47214 28.5218 4.40958 28.5013 4.32938L28.1763 2.809C28.16 2.74373 28.1274 2.6839 28.073 2.6281C28.0186 2.57238 27.9519 2.54514 27.8718 2.54514H22.7096C22.5396 2.54514 22.4716 2.63086 22.5083 2.80086L24.2259 10.8827L24.2232 10.8785V10.8772Z" fill="var(--fill-0, white)"/>
<path id="path22" d="M30.7596 10.8667C30.7773 10.9469 30.8154 11.0122 30.8697 11.0598C30.9228 11.1088 30.9908 11.1319 31.071 11.1319H36.8111C36.8967 11.1319 36.9566 11.1074 36.9919 11.0557C37.0273 11.0067 37.0368 10.9388 37.0191 10.8545L36.7118 9.42114C36.7009 9.35587 36.6642 9.29329 36.6044 9.23347C36.5446 9.17364 36.4698 9.14373 36.3827 9.14373H32.6376L32.3371 7.71584H35.2268C35.3003 7.71584 35.3574 7.69816 35.3968 7.66415C35.4376 7.63013 35.4485 7.57307 35.4281 7.49146L35.1615 6.24169C35.1507 6.18865 35.1194 6.13698 35.065 6.08535C35.0133 6.03634 34.9467 6.00919 34.8664 6.00919H31.9699L31.6571 4.53372H35.541C35.7109 4.53372 35.7776 4.44398 35.7422 4.26719L35.4308 2.8094C35.4145 2.73324 35.3751 2.66796 35.3125 2.61902C35.2499 2.57002 35.1765 2.54286 35.0949 2.54286H29.2447C29.1685 2.54286 29.11 2.56322 29.0707 2.60269C29.0325 2.64349 29.0231 2.706 29.0421 2.79037L30.7528 10.8613L30.7596 10.8653V10.8667Z" fill="var(--fill-0, white)"/>
<path id="path24" d="M38.1817 10.8668C38.1994 10.9469 38.2348 11.0122 38.2892 11.0598C38.3408 11.1088 38.4102 11.1319 38.4945 11.1319H42.2288C42.6245 11.1319 42.9808 11.0585 43.299 10.9102C43.6145 10.762 43.8742 10.5608 44.0809 10.3065C44.2849 10.0508 44.4263 9.75299 44.4998 9.41306C44.576 9.07306 44.5718 8.70725 44.4902 8.32241C44.4372 8.05992 44.3475 7.80972 44.2237 7.57445C44.1 7.3365 43.9531 7.11615 43.7845 6.90945C43.6145 6.70416 43.4241 6.51514 43.212 6.34917C42.9998 6.18193 42.7782 6.0378 42.5429 5.91949L43.4391 3.12086C43.4554 3.06783 43.4744 3.00247 43.5016 2.93043C43.5288 2.85704 43.537 2.79444 43.5234 2.74005C43.4921 2.61222 43.405 2.5497 43.2568 2.5497H41.2728C41.2075 2.5497 41.1518 2.57006 41.1055 2.60818C41.0579 2.64622 41.0361 2.69925 41.0361 2.76453L40.1984 5.4068H39.2629L38.7081 2.79853C38.6699 2.63265 38.5625 2.5497 38.3898 2.5497H36.6723C36.5961 2.5497 36.5377 2.57006 36.4982 2.60953C36.4574 2.65033 36.4506 2.71284 36.4696 2.79721L38.1804 10.8681L38.1831 10.8653L38.1817 10.8668ZM42.1648 8.29929C42.1866 8.41618 42.1921 8.53046 42.1744 8.64601C42.1567 8.76297 42.12 8.8677 42.0642 8.96423C42.0085 9.06082 41.9323 9.14101 41.8385 9.20636C41.7446 9.27163 41.6318 9.31377 41.5067 9.33414C41.4033 9.34093 41.3027 9.34779 41.2088 9.35457C41.115 9.36136 41.0117 9.36405 40.9002 9.36405H40.1033L39.6532 7.24131H40.7166C40.786 7.24131 40.8471 7.24131 40.9028 7.2481C40.9559 7.25213 41.0198 7.25758 41.0892 7.26578C41.2279 7.28205 41.3585 7.3215 41.4768 7.38409C41.5951 7.44936 41.7025 7.52686 41.7963 7.62205C41.8902 7.71589 41.9704 7.8233 42.0343 7.94027C42.0969 8.05723 42.1445 8.17822 42.1703 8.30063" fill="var(--fill-0, white)"/>
<path id="path26" d="M58.3384 10.2754L57.6925 7.2118H54.1351L54.5634 9.2419H53.7769L52.7637 4.43473H53.5489L53.9819 6.48492H57.538L56.8874 3.39982C56.7935 2.9565 56.4359 2.66008 55.9912 2.66008H49.5803C49.1369 2.66008 48.903 2.9565 48.9968 3.39982L50.4464 10.2754C50.5403 10.7201 50.898 11.0152 51.3426 11.0152H57.755C58.1997 11.0152 58.4322 10.7201 58.3384 10.2754Z" fill="var(--fill-0, white)"/>
<path id="path28" d="M62.8476 6.83987H62.0624L62.5683 9.24144H63.3548L62.8476 6.83987ZM66.5465 11.0147H60.1341C59.6894 11.0147 59.3318 10.7196 59.238 10.2749L57.632 2.65825H61.1799L61.6885 5.06526H62.4736L61.9664 2.65825H65.5211L67.1271 10.2749H67.1298C67.2237 10.7196 66.9911 11.0147 66.5465 11.0147Z" fill="var(--fill-0, white)"/>
<path id="path30" d="M80.1923 10.2749L78.5856 2.65825H75.0364L76.4253 9.24144H75.6389L74.2501 2.65961H70.761L72.1491 9.24144H71.3627L69.9742 2.65961H66.4235L68.1859 11.0147H70.9979C71.4427 11.0147 71.6753 10.7196 71.5813 10.2749H72.3683C72.4617 10.7196 72.8973 11.0147 73.323 11.0147H79.6096C80.0544 11.0147 80.287 10.7196 80.193 10.2749H80.1909H80.1923Z" fill="var(--fill-0, white)"/>
<path id="path32" fill-rule="evenodd" clip-rule="evenodd" d="M80.5212 12.6254C81.5572 12.6254 82.2205 11.785 82.002 10.7487L79.9576 1.05279H48.6426C47.6051 1.05279 46.9428 1.89317 47.1618 2.92935L49.2057 12.6254H80.5212ZM83.6568 13.6765H48.3761L45.4918 0.000177009H80.7737L83.6568 13.6765Z" fill="var(--fill-0, white)"/>
</g>
</svg>
