<svg preserveAspectRatio="none" width="100%" height="100%" overflow="visible" style="display: block;" viewBox="0 0 51 10" fill="none" xmlns="http://www.w3.org/2000/svg">
<g id="Group 414">
<path id="Vector" d="M6.10042 2.86323C6.12561 2.73227 6.12813 2.61139 6.10294 2.49805C6.08028 2.38472 6.03241 2.2865 5.96441 2.19835C5.8939 2.11272 5.80576 2.04472 5.69495 1.99435C5.58413 1.94398 5.4582 1.91879 5.31465 1.91879H4.11836L3.72041 3.80516H4.89657C5.04516 3.80516 5.18369 3.78249 5.31717 3.73716C5.44813 3.69182 5.569 3.62634 5.67478 3.54071C5.78056 3.45508 5.87124 3.35686 5.94428 3.24101C6.01731 3.12516 6.0702 2.99924 6.10042 2.86072M5.63952 6.641C5.6647 6.51004 5.66723 6.3816 5.64708 6.25063C5.62441 6.11967 5.58159 6.00382 5.51359 5.90308C5.44559 5.80234 5.35998 5.71671 5.25169 5.65375C5.14339 5.58827 5.01747 5.55552 4.87391 5.55552H3.35272L2.89184 7.72648H4.413C4.55656 7.72648 4.69508 7.69626 4.82856 7.63582C4.96204 7.57537 5.08547 7.49478 5.19629 7.39152C5.3071 7.29078 5.4028 7.17493 5.47836 7.04396C5.55643 6.913 5.6093 6.77952 5.64204 6.641M1.93984 0.299391C1.96251 0.208724 2.0028 0.135691 2.06324 0.0828024C2.12369 0.0273952 2.19925 0.00220819 2.28992 0.00220819H6.41272C6.79553 0.00220819 7.13804 0.0752413 7.44782 0.218796C7.75508 0.36487 8.00945 0.563834 8.20842 0.818203C8.40738 1.07257 8.5459 1.36976 8.62146 1.70976C8.69701 2.04976 8.69448 2.41494 8.61137 2.80531C8.53834 3.1302 8.41996 3.43242 8.2613 3.71197C8.10011 3.99153 7.90367 4.24086 7.66945 4.46249C7.91627 4.7496 8.09003 5.0896 8.19077 5.48753C8.29151 5.88545 8.29404 6.30101 8.20337 6.73923C8.11523 7.13463 7.95908 7.50737 7.73493 7.85996C7.50827 8.21255 7.2388 8.52233 6.92398 8.78929C6.60917 9.05625 6.26413 9.26781 5.88636 9.42396C5.50858 9.58011 5.1308 9.65818 4.74798 9.65818H0.239845C0.154215 9.65818 0.0887265 9.63552 0.0433933 9.59018C-0.0019399 9.54485 -0.00949667 9.47432 0.0106514 9.37862L1.9348 0.299391H1.93984Z" fill="var(--fill-0, white)"/>
<path id="Vector_2" d="M13.8576 3.03713C13.7266 3.25876 13.5931 3.49802 13.4571 3.75239C13.3211 4.00676 13.1826 4.26616 13.0416 4.52557C12.9005 4.78498 12.762 5.04186 12.626 5.29623C12.49 5.5506 12.3565 5.78735 12.2256 6.00898H14.2228L13.8576 3.03713ZM13.2657 0.254178C13.2959 0.201289 13.3514 0.145881 13.4345 0.0879553C13.5176 0.0300295 13.5956 -0.000194143 13.6687 -0.000194143H15.3334C15.4065 -0.000194143 15.4669 0.0199515 15.5148 0.0602477C15.5626 0.100544 15.5903 0.143359 15.6004 0.186173L17.2273 9.36111C17.2324 9.40141 17.2324 9.43163 17.2273 9.45933C17.2022 9.59029 17.0939 9.65326 16.9025 9.65326H15.0362C14.9355 9.65326 14.8625 9.63563 14.8146 9.59785C14.7668 9.56008 14.7365 9.49963 14.724 9.41148C14.6887 9.18985 14.6534 8.97074 14.6156 8.75163C14.5779 8.53252 14.5426 8.31341 14.5074 8.09178H11.0545C10.9235 8.31341 10.7926 8.53252 10.6616 8.75163C10.5281 8.97074 10.3971 9.18985 10.2687 9.41148C10.2208 9.48955 10.1679 9.55 10.11 9.5903C10.0521 9.6306 9.97906 9.65074 9.89091 9.65074H7.97181C7.90129 9.65074 7.8459 9.63815 7.80057 9.60792C7.75523 9.58022 7.74011 9.53489 7.7527 9.47444C7.75774 9.45178 7.77033 9.42408 7.79048 9.39133L13.2657 0.246623V0.254178Z" fill="var(--fill-0, white)"/>
<path id="Vector_3" d="M19.891 0.28692C19.9086 0.208846 19.9489 0.140842 20.0119 0.0854343C20.0748 0.0300271 20.1504 -0.000194143 20.2436 -0.000194143H22.1677C22.2407 -0.000194143 22.3062 0.0249904 22.3591 0.0778791C22.412 0.130768 22.4296 0.198772 22.407 0.28692L20.9034 7.36142H24.4797C24.5578 7.36142 24.6207 7.3866 24.6661 7.43949C24.7114 7.49238 24.724 7.5629 24.7013 7.65356L24.3362 9.36363C24.3185 9.43667 24.2807 9.50466 24.2203 9.56763C24.1598 9.63059 24.0843 9.66082 23.9936 9.66082H18.1859C17.9945 9.66082 17.919 9.56511 17.9593 9.3737L19.891 0.281878V0.28692Z" fill="var(--fill-0, white)"/>
<path id="Vector_4" d="M27.2508 0.28692C27.2684 0.208846 27.3087 0.140842 27.3717 0.0854343C27.4347 0.0300271 27.5102 -0.000194143 27.6034 -0.000194143H29.5276C29.6006 -0.000194143 29.6661 0.0249904 29.719 0.0778791C29.7719 0.130768 29.7895 0.198772 29.7668 0.28692L28.2658 7.36142H31.8421C31.9201 7.36142 31.9831 7.3866 32.0284 7.43949C32.0738 7.49238 32.0864 7.5629 32.0637 7.65356L31.6985 9.36363C31.6809 9.43667 31.6431 9.50466 31.5826 9.56763C31.5222 9.63059 31.4467 9.66082 31.356 9.66082H25.5483C25.3569 9.66082 25.2813 9.56511 25.3216 9.3737L27.2533 0.281878L27.2508 0.28692Z" fill="var(--fill-0, white)"/>
<path id="Vector_5" d="M34.6039 0.299391C34.6241 0.208724 34.6669 0.135691 34.7273 0.0828024C34.7878 0.0273951 34.8633 0.00220819 34.954 0.00220819H41.4115C41.5072 0.00220819 41.5752 0.0299109 41.6155 0.0878366C41.6558 0.143244 41.6658 0.218798 41.6457 0.314501L41.3007 1.92635C41.2881 1.99938 41.2477 2.0699 41.1798 2.1379C41.1118 2.2059 41.0286 2.23865 40.9304 2.23865H36.717L36.3795 3.84545H39.6309C39.714 3.84545 39.777 3.8656 39.8223 3.90338C39.8676 3.94116 39.8802 4.00664 39.8575 4.0973L39.5578 5.50263C39.5453 5.56308 39.51 5.621 39.4495 5.67893C39.3916 5.73433 39.3161 5.76456 39.2254 5.76456H35.9664L35.6138 7.42426H39.9835C40.1749 7.42426 40.2504 7.525 40.2101 7.72396L39.8601 9.36351C39.8424 9.44914 39.7971 9.52218 39.7266 9.57758C39.6561 9.63299 39.5729 9.66321 39.4823 9.66321H32.9014C32.8158 9.66321 32.7503 9.64055 32.705 9.59521C32.6622 9.54988 32.6521 9.47936 32.6722 9.38366L34.5964 0.304425L34.6039 0.299391Z" fill="var(--fill-0, white)"/>
<path id="Vector_6" d="M47.432 3.18812C47.4572 3.05716 47.4623 2.92872 47.4421 2.79776C47.422 2.66679 47.3816 2.54842 47.3187 2.44013C47.2557 2.33183 47.1701 2.24117 47.0643 2.16813C46.9586 2.09509 46.8326 2.04724 46.6916 2.02457C46.5757 2.01702 46.4624 2.00946 46.3566 2.00191C46.2509 1.99435 46.135 1.99183 46.0091 1.99183H45.1125L44.6063 4.37938H45.8026C45.8806 4.37938 45.9486 4.37938 46.0116 4.37183C46.072 4.36679 46.1425 4.36175 46.2206 4.35167C46.3768 4.33405 46.5228 4.28871 46.6563 4.21819C46.7898 4.14516 46.9107 4.05701 47.0165 3.95123C47.1223 3.84545 47.2129 3.72456 47.2835 3.5936C47.354 3.46264 47.4069 3.32664 47.4371 3.18812M42.9516 0.299391C42.9717 0.208724 43.012 0.135691 43.0725 0.0828024C43.1304 0.0273952 43.2085 0.00220819 43.3042 0.00220819H47.5051C47.9509 0.00220819 48.3513 0.0853166 48.7089 0.251538C49.064 0.41776 49.3562 0.644429 49.5879 0.93154C49.8171 1.21865 49.9757 1.55361 50.0588 1.93642C50.1445 2.31924 50.1394 2.72975 50.0488 3.16294C49.9883 3.4576 49.8876 3.73968 49.7491 4.00412C49.6105 4.27108 49.4443 4.52041 49.2554 4.75212C49.064 4.98382 48.8499 5.19538 48.6107 5.38174C48.3714 5.57063 48.1221 5.73182 47.8577 5.8653L48.8651 9.01344C48.8827 9.07389 48.9054 9.14692 48.9356 9.22752C48.9658 9.31063 48.9759 9.38114 48.9608 9.44158C48.9255 9.58514 48.8273 9.65566 48.6611 9.65566H46.4297C46.3566 9.65566 46.2937 9.633 46.2408 9.59018C46.1879 9.54737 46.1627 9.48692 46.1627 9.41388L45.2208 6.44204H44.1681L43.5434 9.37611C43.5006 9.56248 43.3798 9.65566 43.1858 9.65566H41.2541C41.1685 9.65566 41.103 9.633 41.0577 9.58766C41.0123 9.54233 41.0048 9.47181 41.0249 9.37611L42.9491 0.29687L42.9516 0.299391Z" fill="var(--fill-0, white)"/>
</g>
</svg>
