<svg preserveAspectRatio="none" width="100%" height="100%" overflow="visible" style="display: block;" viewBox="0 0 95 34" fill="none" xmlns="http://www.w3.org/2000/svg">
<g id="Group 259817">
<g id="Group">
<path id="Vector" d="M31.851 8.43228L30.25 16.0273H21.4306L22.4923 10.9945H20.5425L18.0308 22.912H19.9773L21.0507 17.8293H29.8668L28.2538 25.4776C28.0212 26.5766 27.1345 27.3116 26.0321 27.3116H10.1386C9.03957 27.3116 8.4597 26.5766 8.69232 25.4776L12.2861 8.43228C12.5188 7.32987 13.4054 6.59829 14.5078 6.59829H30.4047C31.5071 6.59829 32.0836 7.32987 31.851 8.43228Z" fill="var(--fill-0, white)"/>
<path id="Vector_2" d="M52.2008 6.59829H36.3039C35.2015 6.59829 34.3149 7.32987 34.0822 8.43228L30.1007 27.315H38.8965L40.1573 21.3477H42.1038L40.8463 27.315H49.6589L53.6404 8.43228H53.6471C53.8797 7.32987 53.3032 6.59829 52.2008 6.59829ZM43.0309 16.9482H41.0844L42.3386 10.9945H44.2884L43.0309 16.9482Z" fill="var(--fill-0, white)"/>
<path id="Vector_3" d="M86.0282 8.43228L82.0467 27.315H73.2476L76.6897 10.9945H74.7399L71.2978 27.3116H62.647L66.0891 10.9945H64.1393L60.6972 27.3116H51.8947L56.2639 6.59829H63.2358C64.3382 6.59829 64.9147 7.32987 64.6821 8.43228H66.6319C66.8645 7.32987 67.9433 6.59829 68.9985 6.59829H84.5853C85.6877 6.59829 86.2642 7.32987 86.0315 8.43228H86.0248H86.0282Z" fill="var(--fill-0, white)"/>
</g>
<g id="Vector_4">
<path fill-rule="evenodd" clip-rule="evenodd" d="M94.6152 -0.000440631H7.15056L2.28882e-05 33.9048H87.4681L94.6152 -0.000440631ZM86.841 2.60558C89.4099 2.60558 91.0551 4.68904 90.5124 7.25798L85.4453 31.2954H7.81134C5.23903 31.2954 3.5972 29.2119 4.13998 26.643L9.20705 2.60558H86.841Z" fill="var(--fill-0, white)"/>
<path fill-rule="evenodd" clip-rule="evenodd" d="M94.6152 -0.000440631H7.15056L2.28882e-05 33.9048H87.4681L94.6152 -0.000440631ZM86.841 2.60558C89.4099 2.60558 91.0551 4.68904 90.5124 7.25798L85.4453 31.2954H7.81134C5.23903 31.2954 3.5972 29.2119 4.13998 26.643L9.20705 2.60558H86.841Z" fill="url(#paint0_linear_12205_4811)"/>
</g>
</g>
<defs>
<linearGradient id="paint0_linear_12205_4811" x1="3.8386" y1="17.0201" x2="91.335" y2="16.9091" gradientUnits="userSpaceOnUse">
<stop stop-color="#EA463C"/>
<stop offset="1" stop-color="#406CEB"/>
</linearGradient>
</defs>
</svg>
