<svg preserveAspectRatio="none" width="100%" height="100%" overflow="visible" style="display: block;" viewBox="0 0 36 36" fill="none" xmlns="http://www.w3.org/2000/svg">
<g id="mdi:account-circle">
<path id="Vector" d="M19 31.02C15 31.02 11.464 28.972 9.4 25.9C9.448 22.7 15.8 20.94 19 20.94C22.2 20.94 28.552 22.7 28.6 25.9C27.5424 27.4753 26.1136 28.7662 24.4395 29.6591C22.7654 30.5519 20.8973 31.0193 19 31.02ZM19 8.3C20.273 8.3 21.4939 8.80571 22.3941 9.70589C23.2943 10.6061 23.8 11.827 23.8 13.1C23.8 14.373 23.2943 15.5939 22.3941 16.4941C21.4939 17.3943 20.273 17.9 19 17.9C17.727 17.9 16.5061 17.3943 15.6059 16.4941C14.7057 15.5939 14.2 14.373 14.2 13.1C14.2 11.827 14.7057 10.6061 15.6059 9.70589C16.5061 8.80571 17.727 8.3 19 8.3ZM19 3.5C16.8989 3.5 14.8183 3.91385 12.8771 4.71793C10.9359 5.522 9.17203 6.70055 7.68629 8.18629C4.68571 11.1869 3 15.2565 3 19.5C3 23.7435 4.68571 27.8131 7.68629 30.8137C9.17203 32.2994 10.9359 33.478 12.8771 34.2821C14.8183 35.0861 16.8989 35.5 19 35.5C23.2435 35.5 27.3131 33.8143 30.3137 30.8137C33.3143 27.8131 35 23.7435 35 19.5C35 10.652 27.8 3.5 19 3.5Z" fill="var(--fill-0, white)"/>
</g>
</svg>
