<svg preserveAspectRatio="none" width="100%" height="100%" overflow="visible" style="display: block;" viewBox="0 0 20 20" fill="none" xmlns="http://www.w3.org/2000/svg">
<path id="Vector" d="M0.0329999 7.11084C0.0165919 7.30902 0 7.5072 0 7.71365C0 9.12599 0.26437 10.4721 0.735021 11.7193C0.891908 10.8438 1.04879 10.0096 1.28848 8.80394C1.27189 8.72965 1.23889 8.62216 1.22248 8.54787C0.751634 7.98616 0.371692 7.53192 0.0330179 7.11085L0.0329999 7.11084ZM10.5137 17.9547C10.489 17.963 10.4724 17.9713 10.4477 17.9794C9.79525 18.128 9.2501 18.2355 8.75455 18.3263C8.44077 18.3842 8.41588 18.8302 8.72984 18.9128C9.63835 19.144 10.5799 19.2761 11.5626 19.2761C11.7608 19.2761 11.9509 19.2595 12.1491 19.2431C11.6782 18.8962 11.1827 18.4998 10.5552 17.9877C10.5386 17.9794 10.5303 17.9713 10.5137 17.9547L10.5137 17.9547ZM19.3595 3.88983C17.8812 2.3453 17.0799 1.5277 15.5603 0.0247033C15.5437 0.00811165 15.5273 0 15.5107 0H15.4941C13.6275 0.454246 12.5455 0.726698 10.8773 1.17287C10.6791 1.22247 10.4643 1.28017 10.2495 1.33805C10.1752 1.41235 10.109 1.47853 10.0347 1.54453C9.44828 3.52669 9.13453 4.61698 8.59768 6.64058C8.62238 6.73976 8.64727 6.83046 8.67197 6.93794C10.1173 8.44924 10.9103 9.25877 12.3803 10.7124C12.4795 10.7371 12.5702 10.762 12.6694 10.795C14.7012 10.2994 15.8079 10.0187 17.9137 9.44887C17.9384 9.44057 17.9633 9.42416 17.9633 9.39927C18.5745 7.33452 18.8884 6.23617 19.4417 4.17958C19.4089 4.08003 19.3841 3.98914 19.3593 3.89014L19.3595 3.88983Z" fill="var(--fill-0, white)"/>
</svg>
