<svg preserveAspectRatio="none" width="100%" height="100%" overflow="visible" style="display: block;" viewBox="0 0 23 23" fill="none" xmlns="http://www.w3.org/2000/svg">
<path id="Vector" d="M20.0796 6.66501C20.1539 6.73931 20.2695 6.7806 20.377 6.7559L21.2112 6.54943C21.4011 6.49983 21.5003 6.28506 21.4094 6.11988C20.377 4.212 18.8573 2.63448 16.999 1.55255C16.8338 1.45337 16.6108 1.54426 16.5614 1.73433C16.4871 2.0068 16.4045 2.28777 16.3136 2.60983C16.2806 2.71712 16.3136 2.8329 16.3962 2.90719C17.8497 4.36064 18.6508 5.17011 20.0796 6.66504L20.0796 6.66501ZM7.39349 1.77568C7.93034 2.32082 8.47549 2.87403 9.2352 3.65057C9.30949 3.72486 9.43338 3.75786 9.53256 3.73316C11.5314 3.20463 12.6381 2.92387 14.6202 2.4364C14.7275 2.4117 14.8101 2.32911 14.8433 2.22163C14.9755 1.77568 15.0911 1.37911 15.1984 1.01576C15.2397 0.858881 15.1571 0.701997 15.0085 0.644108C13.819 0.231158 12.5472 0 11.2174 0C9.73072 0 8.31835 0.289065 7.01349 0.792912C6.81531 0.867206 6.76572 1.13157 6.91431 1.28845C7.07949 1.45363 7.23638 1.61052 7.39344 1.77569L7.39349 1.77568ZM2.23126 11.4057L6.55903 10.299C6.66632 10.2743 6.74892 10.1834 6.77381 10.0843C7.31896 8.07741 7.63272 6.97882 8.21917 5.01322C8.25217 4.91404 8.21916 4.79015 8.14487 4.71586C7.39324 3.92295 6.84001 3.36973 6.30316 2.82459C6.00561 2.51893 5.70827 2.21328 5.38616 1.88292C5.27887 1.78392 5.12197 1.75904 4.99809 1.83351C2.54501 3.40273 0.72799 5.87212 0.00953447 8.77108C-0.0151695 8.86197 0.0095345 8.96097 0.0674243 9.03545C0.628955 9.73747 1.14943 10.3735 1.92574 11.3067C1.99985 11.3974 2.12374 11.4387 2.23122 11.4057L2.23126 11.4057ZM19.9305 16.741C19.3689 16.1712 18.7908 15.5847 17.9729 14.7505V14.7422C17.9647 14.7422 17.9564 14.7505 17.9482 14.7505C16.3211 15.1882 15.297 15.4526 13.9838 15.7829C13.5956 15.8821 13.1826 15.9811 12.7203 16.0967C12.613 16.1214 12.5304 16.204 12.4972 16.3115C12.1834 17.3685 11.9687 18.1201 11.7622 18.8551C11.6053 19.392 11.4565 19.9205 11.2832 20.5482C11.2502 20.6638 11.2915 20.796 11.3905 20.8703C12.3899 21.6715 13.0424 22.1671 13.8517 22.7203C13.926 22.7699 14.0169 22.7863 14.0995 22.7616C16.8829 22.0429 19.2617 20.3168 20.8224 17.9959C20.905 17.8803 20.8803 17.7151 20.7811 17.6076C20.484 17.294 20.2113 17.0216 19.9305 16.7408L19.9305 16.741ZM22.2514 8.13512C22.2018 7.98653 22.0449 7.89564 21.888 7.93694L20.773 8.226C20.6657 8.25071 20.5831 8.34159 20.5582 8.44078C20.0048 10.4559 19.6993 11.5545 19.1129 13.5118C19.0799 13.611 19.1129 13.7349 19.1872 13.8092C19.9305 14.5938 20.4756 15.1472 21.0125 15.6841C21.2437 15.9152 21.475 16.1549 21.7145 16.3944C22.3917 14.9242 22.7799 13.2888 22.7799 11.5626C22.7799 10.3651 22.59 9.21711 22.2514 8.13514L22.2514 8.13512ZM7.13703 11.7278L7.12874 11.7112V11.7029C7.12044 11.7029 7.11214 11.7112 7.11214 11.7112L4.54349 12.3636L2.61089 12.8592C2.49529 12.8839 2.4127 12.983 2.38781 13.0986C2.02444 14.9322 1.85927 15.8654 1.5702 17.5668C1.5702 17.5751 1.5785 17.6164 1.6032 17.6494C2.85869 19.1526 3.64331 19.8463 5.06375 21.0935C5.10505 21.1265 5.14634 21.1431 5.16294 21.1431C6.85607 20.9283 7.7812 20.8044 9.58161 20.4081C9.6889 20.3834 9.77979 20.3008 9.81279 20.1933C9.99457 19.5409 10.1515 19.0041 10.3083 18.4506C10.5148 17.7156 10.7296 16.964 11.027 15.915C11.06 15.8077 11.027 15.6919 10.9444 15.6093C9.44131 14.1229 8.64012 13.3053 7.13705 11.7278L7.13703 11.7278Z" fill="var(--fill-0, white)"/>
</svg>
