<svg preserveAspectRatio="none" width="100%" height="100%" overflow="visible" style="display: block;" viewBox="0 0 20 5" fill="none" xmlns="http://www.w3.org/2000/svg">
<path id="Union" d="M2.5 0C3.88071 0 5 1.11929 5 2.5C5 3.88071 3.88071 5 2.5 5C1.11929 5 0 3.88071 0 2.5C0 1.11929 1.11929 0 2.5 0ZM10 0C11.3807 0 12.5 1.11929 12.5 2.5C12.5 3.88071 11.3807 5 10 5C8.61929 5 7.5 3.88071 7.5 2.5C7.5 1.11929 8.61929 0 10 0ZM17.5 0C18.8807 0 20 1.11929 20 2.5C20 3.88071 18.8807 5 17.5 5C16.1193 5 15 3.88071 15 2.5C15 1.11929 16.1193 0 17.5 0Z" fill="var(--fill-0, #222226)"/>
</svg>
